<svg id="visual" viewBox="0 0 1920 1080" width="1920" height="1080" xmlns="http://www.w3.org/2000/svg" xmlns:xlink="http://www.w3.org/1999/xlink" version="1.1"><rect x="0" y="0" width="1920" height="1080" fill="#001220"></rect><path d="M0 196L40 214.7C80 233.3 160 270.7 240 245.8C320 221 400 134 480 124.3C560 114.7 640 182.3 720 190.3C800 198.3 880 146.7 960 161.8C1040 177 1120 259 1200 266.8C1280 274.7 1360 208.3 1440 171.7C1520 135 1600 128 1680 140.5C1760 153 1840 185 1880 201L1920 217L1920 1081L1880 1081C1840 1081 1760 1081 1680 1081C1600 1081 1520 1081 1440 1081C1360 1081 1280 1081 1200 1081C1120 1081 1040 1081 960 1081C880 1081 800 1081 720 1081C640 1081 560 1081 480 1081C400 1081 320 1081 240 1081C160 1081 80 1081 40 1081L0 1081Z" fill="#e78780"></path><path d="M0 464L40 429.3C80 394.7 160 325.3 240 319.5C320 313.7 400 371.3 480 409C560 446.7 640 464.3 720 471C800 477.7 880 473.3 960 437.8C1040 402.3 1120 335.7 1200 293.2C1280 250.7 1360 232.3 1440 258.8C1520 285.3 1600 356.7 1680 355.2C1760 353.7 1840 279.3 1880 242.2L1920 205L1920 1081L1880 1081C1840 1081 1760 1081 1680 1081C1600 1081 1520 1081 1440 1081C1360 1081 1280 1081 1200 1081C1120 1081 1040 1081 960 1081C880 1081 800 1081 720 1081C640 1081 560 1081 480 1081C400 1081 320 1081 240 1081C160 1081 80 1081 40 1081L0 1081Z" fill="#bc7d56"></path><path d="M0 588L40 579.2C80 570.3 160 552.7 240 527.2C320 501.7 400 468.3 480 478C560 487.7 640 540.3 720 535C800 529.7 880 466.3 960 445.7C1040 425 1120 447 1200 467.2C1280 487.3 1360 505.7 1440 503.5C1520 501.3 1600 478.7 1680 487.7C1760 496.7 1840 537.3 1880 557.7L1920 578L1920 1081L1880 1081C1840 1081 1760 1081 1680 1081C1600 1081 1520 1081 1440 1081C1360 1081 1280 1081 1200 1081C1120 1081 1040 1081 960 1081C880 1081 800 1081 720 1081C640 1081 560 1081 480 1081C400 1081 320 1081 240 1081C160 1081 80 1081 40 1081L0 1081Z" fill="#8c743d"></path><path d="M0 591L40 609.3C80 627.7 160 664.3 240 693.5C320 722.7 400 744.3 480 715.3C560 686.3 640 606.7 720 563.5C800 520.3 880 513.7 960 513C1040 512.3 1120 517.7 1200 555.5C1280 593.3 1360 663.7 1440 689.3C1520 715 1600 696 1680 676.8C1760 657.7 1840 638.3 1880 628.7L1920 619L1920 1081L1880 1081C1840 1081 1760 1081 1680 1081C1600 1081 1520 1081 1440 1081C1360 1081 1280 1081 1200 1081C1120 1081 1040 1081 960 1081C880 1081 800 1081 720 1081C640 1081 560 1081 480 1081C400 1081 320 1081 240 1081C160 1081 80 1081 40 1081L0 1081Z" fill="#5d6734"></path><path d="M0 850L40 818.8C80 787.7 160 725.3 240 712.8C320 700.3 400 737.7 480 747.8C560 758 640 741 720 759.2C800 777.3 880 830.7 960 830.5C1040 830.3 1120 776.7 1200 759.7C1280 742.7 1360 762.3 1440 766.7C1520 771 1600 760 1680 773.5C1760 787 1840 825 1880 844L1920 863L1920 1081L1880 1081C1840 1081 1760 1081 1680 1081C1600 1081 1520 1081 1440 1081C1360 1081 1280 1081 1200 1081C1120 1081 1040 1081 960 1081C880 1081 800 1081 720 1081C640 1081 560 1081 480 1081C400 1081 320 1081 240 1081C160 1081 80 1081 40 1081L0 1081Z" fill="#325735"></path><path d="M0 947L40 952.2C80 957.3 160 967.7 240 951.2C320 934.7 400 891.3 480 902C560 912.7 640 977.3 720 991.5C800 1005.7 880 969.3 960 964.5C1040 959.7 1120 986.3 1200 1003.8C1280 1021.3 1360 1029.7 1440 1005.8C1520 982 1600 926 1680 906C1760 886 1840 902 1880 910L1920 918L1920 1081L1880 1081C1840 1081 1760 1081 1680 1081C1600 1081 1520 1081 1440 1081C1360 1081 1280 1081 1200 1081C1120 1081 1040 1081 960 1081C880 1081 800 1081 720 1081C640 1081 560 1081 480 1081C400 1081 320 1081 240 1081C160 1081 80 1081 40 1081L0 1081Z" fill="#044537"></path></svg>