<svg id="visual" viewBox="0 0 1920 1080" width="1920" height="1080" xmlns="http://www.w3.org/2000/svg" xmlns:xlink="http://www.w3.org/1999/xlink" version="1.1"><rect x="0" y="0" width="1920" height="1080" fill="#ec9751"></rect><path d="M0 323L40 326C80 329 160 335 240 328.7C320 322.3 400 303.7 480 279.7C560 255.7 640 226.3 720 192.2C800 158 880 119 960 113.7C1040 108.3 1120 136.7 1200 143.5C1280 150.3 1360 135.7 1440 129C1520 122.3 1600 123.7 1680 156.5C1760 189.3 1840 253.7 1880 285.8L1920 318L1920 1081L1880 1081C1840 1081 1760 1081 1680 1081C1600 1081 1520 1081 1440 1081C1360 1081 1280 1081 1200 1081C1120 1081 1040 1081 960 1081C880 1081 800 1081 720 1081C640 1081 560 1081 480 1081C400 1081 320 1081 240 1081C160 1081 80 1081 40 1081L0 1081Z" fill="#e78780"></path><path d="M0 269L40 294.8C80 320.7 160 372.3 240 368.8C320 365.3 400 306.7 480 314C560 321.3 640 394.7 720 423.7C800 452.7 880 437.3 960 400.5C1040 363.7 1120 305.3 1200 281.2C1280 257 1360 267 1440 281.2C1520 295.3 1600 313.7 1680 303.8C1760 294 1840 256 1880 237L1920 218L1920 1081L1880 1081C1840 1081 1760 1081 1680 1081C1600 1081 1520 1081 1440 1081C1360 1081 1280 1081 1200 1081C1120 1081 1040 1081 960 1081C880 1081 800 1081 720 1081C640 1081 560 1081 480 1081C400 1081 320 1081 240 1081C160 1081 80 1081 40 1081L0 1081Z" fill="#bc7d56"></path><path d="M0 435L40 460.5C80 486 160 537 240 557.3C320 577.7 400 567.3 480 527.3C560 487.3 640 417.7 720 383.2C800 348.7 880 349.3 960 380C1040 410.7 1120 471.3 1200 482.2C1280 493 1360 454 1440 438.5C1520 423 1600 431 1680 433.8C1760 436.7 1840 434.3 1880 433.2L1920 432L1920 1081L1880 1081C1840 1081 1760 1081 1680 1081C1600 1081 1520 1081 1440 1081C1360 1081 1280 1081 1200 1081C1120 1081 1040 1081 960 1081C880 1081 800 1081 720 1081C640 1081 560 1081 480 1081C400 1081 320 1081 240 1081C160 1081 80 1081 40 1081L0 1081Z" fill="#8c743d"></path><path d="M0 635L40 627.3C80 619.7 160 604.3 240 605.2C320 606 400 623 480 610.8C560 598.7 640 557.3 720 569.7C800 582 880 648 960 686.3C1040 724.7 1120 735.3 1200 718.8C1280 702.3 1360 658.7 1440 647.8C1520 637 1600 659 1680 661.3C1760 663.7 1840 646.3 1880 637.7L1920 629L1920 1081L1880 1081C1840 1081 1760 1081 1680 1081C1600 1081 1520 1081 1440 1081C1360 1081 1280 1081 1200 1081C1120 1081 1040 1081 960 1081C880 1081 800 1081 720 1081C640 1081 560 1081 480 1081C400 1081 320 1081 240 1081C160 1081 80 1081 40 1081L0 1081Z" fill="#5d6734"></path><path d="M0 750L40 773.8C80 797.7 160 845.3 240 857.2C320 869 400 845 480 817.5C560 790 640 759 720 767.7C800 776.3 880 824.7 960 812.7C1040 800.7 1120 728.3 1200 704.7C1280 681 1360 706 1440 746.2C1520 786.3 1600 841.7 1680 846.2C1760 850.7 1840 804.3 1880 781.2L1920 758L1920 1081L1880 1081C1840 1081 1760 1081 1680 1081C1600 1081 1520 1081 1440 1081C1360 1081 1280 1081 1200 1081C1120 1081 1040 1081 960 1081C880 1081 800 1081 720 1081C640 1081 560 1081 480 1081C400 1081 320 1081 240 1081C160 1081 80 1081 40 1081L0 1081Z" fill="#325735"></path><path d="M0 823L40 850.7C80 878.3 160 933.7 240 963.2C320 992.7 400 996.3 480 1000.3C560 1004.3 640 1008.7 720 991.2C800 973.7 880 934.3 960 927.7C1040 921 1120 947 1200 943.5C1280 940 1360 907 1440 900.8C1520 894.7 1600 915.3 1680 914.2C1760 913 1840 890 1880 878.5L1920 867L1920 1081L1880 1081C1840 1081 1760 1081 1680 1081C1600 1081 1520 1081 1440 1081C1360 1081 1280 1081 1200 1081C1120 1081 1040 1081 960 1081C880 1081 800 1081 720 1081C640 1081 560 1081 480 1081C400 1081 320 1081 240 1081C160 1081 80 1081 40 1081L0 1081Z" fill="#044537"></path></svg>