<svg id="visual" viewBox="0 0 960 70" width="960" height="70" xmlns="http://www.w3.org/2000/svg" xmlns:xlink="http://www.w3.org/1999/xlink" version="1.1"><rect x="0" y="0" width="960" height="70" fill="#28343D"></rect><path d="M0 18L8.8 15.8C17.7 13.7 35.3 9.3 53.2 12.2C71 15 89 25 106.8 28.5C124.7 32 142.3 29 160 26.8C177.7 24.7 195.3 23.3 213.2 20.5C231 17.7 249 13.3 266.8 12.2C284.7 11 302.3 13 320 16C337.7 19 355.3 23 373.2 22C391 21 409 15 426.8 12.8C444.7 10.7 462.3 12.3 480 16.5C497.7 20.7 515.3 27.3 533.2 29.8C551 32.3 569 30.7 586.8 29C604.7 27.3 622.3 25.7 640 22.5C657.7 19.3 675.3 14.7 693.2 16.7C711 18.7 729 27.3 746.8 30.8C764.7 34.3 782.3 32.7 800 29.2C817.7 25.7 835.3 20.3 853.2 18.5C871 16.7 889 18.3 906.8 19.3C924.7 20.3 942.3 20.7 951.2 20.8L960 21L960 71L951.2 71C942.3 71 924.7 71 906.8 71C889 71 871 71 853.2 71C835.3 71 817.7 71 800 71C782.3 71 764.7 71 746.8 71C729 71 711 71 693.2 71C675.3 71 657.7 71 640 71C622.3 71 604.7 71 586.8 71C569 71 551 71 533.2 71C515.3 71 497.7 71 480 71C462.3 71 444.7 71 426.8 71C409 71 391 71 373.2 71C355.3 71 337.7 71 320 71C302.3 71 284.7 71 266.8 71C249 71 231 71 213.2 71C195.3 71 177.7 71 160 71C142.3 71 124.7 71 106.8 71C89 71 71 71 53.2 71C35.3 71 17.7 71 8.8 71L0 71Z" fill="#f2b66d"></path><path d="M0 26L8.8 26.2C17.7 26.3 35.3 26.7 53.2 25.8C71 25 89 23 106.8 25.7C124.7 28.3 142.3 35.7 160 38C177.7 40.3 195.3 37.7 213.2 37C231 36.3 249 37.7 266.8 33.5C284.7 29.3 302.3 19.7 320 20C337.7 20.3 355.3 30.7 373.2 33.2C391 35.7 409 30.3 426.8 28.2C444.7 26 462.3 27 480 25.5C497.7 24 515.3 20 533.2 18C551 16 569 16 586.8 15.3C604.7 14.7 622.3 13.3 640 13.8C657.7 14.3 675.3 16.7 693.2 21.5C711 26.3 729 33.7 746.8 37.2C764.7 40.7 782.3 40.3 800 38.2C817.7 36 835.3 32 853.2 28.5C871 25 889 22 906.8 19.8C924.7 17.7 942.3 16.3 951.2 15.7L960 15L960 71L951.2 71C942.3 71 924.7 71 906.8 71C889 71 871 71 853.2 71C835.3 71 817.7 71 800 71C782.3 71 764.7 71 746.8 71C729 71 711 71 693.2 71C675.3 71 657.7 71 640 71C622.3 71 604.7 71 586.8 71C569 71 551 71 533.2 71C515.3 71 497.7 71 480 71C462.3 71 444.7 71 426.8 71C409 71 391 71 373.2 71C355.3 71 337.7 71 320 71C302.3 71 284.7 71 266.8 71C249 71 231 71 213.2 71C195.3 71 177.7 71 160 71C142.3 71 124.7 71 106.8 71C89 71 71 71 53.2 71C35.3 71 17.7 71 8.8 71L0 71Z" fill="#eda966"></path><path d="M0 33L8.8 33.2C17.7 33.3 35.3 33.7 53.2 32.7C71 31.7 89 29.3 106.8 26.5C124.7 23.7 142.3 20.3 160 23.5C177.7 26.7 195.3 36.3 213.2 38.8C231 41.3 249 36.7 266.8 33.2C284.7 29.7 302.3 27.3 320 25.5C337.7 23.7 355.3 22.3 373.2 24.5C391 26.7 409 32.3 426.8 31.5C444.7 30.7 462.3 23.3 480 23.2C497.7 23 515.3 30 533.2 35.2C551 40.3 569 43.7 586.8 42.3C604.7 41 622.3 35 640 29.8C657.7 24.7 675.3 20.3 693.2 19.7C711 19 729 22 746.8 22.8C764.7 23.7 782.3 22.3 800 25.7C817.7 29 835.3 37 853.2 37.5C871 38 889 31 906.8 28.8C924.7 26.7 942.3 29.3 951.2 30.7L960 32L960 71L951.2 71C942.3 71 924.7 71 906.8 71C889 71 871 71 853.2 71C835.3 71 817.7 71 800 71C782.3 71 764.7 71 746.8 71C729 71 711 71 693.2 71C675.3 71 657.7 71 640 71C622.3 71 604.7 71 586.8 71C569 71 551 71 533.2 71C515.3 71 497.7 71 480 71C462.3 71 444.7 71 426.8 71C409 71 391 71 373.2 71C355.3 71 337.7 71 320 71C302.3 71 284.7 71 266.8 71C249 71 231 71 213.2 71C195.3 71 177.7 71 160 71C142.3 71 124.7 71 106.8 71C89 71 71 71 53.2 71C35.3 71 17.7 71 8.8 71L0 71Z" fill="#e89c5f"></path><path d="M0 26L8.8 27C17.7 28 35.3 30 53.2 31C71 32 89 32 106.8 32.2C124.7 32.3 142.3 32.7 160 33.8C177.7 35 195.3 37 213.2 39C231 41 249 43 266.8 44C284.7 45 302.3 45 320 41.8C337.7 38.7 355.3 32.3 373.2 32.2C391 32 409 38 426.8 42C444.7 46 462.3 48 480 45.2C497.7 42.3 515.3 34.7 533.2 34.3C551 34 569 41 586.8 43.5C604.7 46 622.3 44 640 43.5C657.7 43 675.3 44 693.2 41C711 38 729 31 746.8 30.8C764.7 30.7 782.3 37.3 800 37.5C817.7 37.7 835.3 31.3 853.2 31.5C871 31.7 889 38.3 906.8 41.3C924.7 44.3 942.3 43.7 951.2 43.3L960 43L960 71L951.2 71C942.3 71 924.7 71 906.8 71C889 71 871 71 853.2 71C835.3 71 817.7 71 800 71C782.3 71 764.7 71 746.8 71C729 71 711 71 693.2 71C675.3 71 657.7 71 640 71C622.3 71 604.7 71 586.8 71C569 71 551 71 533.2 71C515.3 71 497.7 71 480 71C462.3 71 444.7 71 426.8 71C409 71 391 71 373.2 71C355.3 71 337.7 71 320 71C302.3 71 284.7 71 266.8 71C249 71 231 71 213.2 71C195.3 71 177.7 71 160 71C142.3 71 124.7 71 106.8 71C89 71 71 71 53.2 71C35.3 71 17.7 71 8.8 71L0 71Z" fill="#e38f5a"></path><path d="M0 35L8.8 36.7C17.7 38.3 35.3 41.7 53.2 42.5C71 43.3 89 41.7 106.8 42.5C124.7 43.3 142.3 46.7 160 44.7C177.7 42.7 195.3 35.3 213.2 34.3C231 33.3 249 38.7 266.8 40.7C284.7 42.7 302.3 41.3 320 41.2C337.7 41 355.3 42 373.2 41.3C391 40.7 409 38.3 426.8 39C444.7 39.7 462.3 43.3 480 45.8C497.7 48.3 515.3 49.7 533.2 46.5C551 43.3 569 35.7 586.8 34.5C604.7 33.3 622.3 38.7 640 41.5C657.7 44.3 675.3 44.7 693.2 42.3C711 40 729 35 746.8 33.5C764.7 32 782.3 34 800 34.7C817.7 35.3 835.3 34.7 853.2 37.2C871 39.7 889 45.3 906.8 45.5C924.7 45.7 942.3 40.3 951.2 37.7L960 35L960 71L951.2 71C942.3 71 924.7 71 906.8 71C889 71 871 71 853.2 71C835.3 71 817.7 71 800 71C782.3 71 764.7 71 746.8 71C729 71 711 71 693.2 71C675.3 71 657.7 71 640 71C622.3 71 604.7 71 586.8 71C569 71 551 71 533.2 71C515.3 71 497.7 71 480 71C462.3 71 444.7 71 426.8 71C409 71 391 71 373.2 71C355.3 71 337.7 71 320 71C302.3 71 284.7 71 266.8 71C249 71 231 71 213.2 71C195.3 71 177.7 71 160 71C142.3 71 124.7 71 106.8 71C89 71 71 71 53.2 71C35.3 71 17.7 71 8.8 71L0 71Z" fill="#dd8255"></path><path d="M0 34L8.8 37.7C17.7 41.3 35.3 48.7 53.2 49.3C71 50 89 44 106.8 44C124.7 44 142.3 50 160 51.8C177.7 53.7 195.3 51.3 213.2 49.3C231 47.3 249 45.7 266.8 46.2C284.7 46.7 302.3 49.3 320 50C337.7 50.7 355.3 49.3 373.2 49.2C391 49 409 50 426.8 50.2C444.7 50.3 462.3 49.7 480 47.8C497.7 46 515.3 43 533.2 41.8C551 40.7 569 41.3 586.8 42.2C604.7 43 622.3 44 640 46.3C657.7 48.7 675.3 52.3 693.2 53.8C711 55.3 729 54.7 746.8 53C764.7 51.3 782.3 48.7 800 48C817.7 47.3 835.3 48.7 853.2 48.7C871 48.7 889 47.3 906.8 47.2C924.7 47 942.3 48 951.2 48.5L960 49L960 71L951.2 71C942.3 71 924.7 71 906.8 71C889 71 871 71 853.2 71C835.3 71 817.7 71 800 71C782.3 71 764.7 71 746.8 71C729 71 711 71 693.2 71C675.3 71 657.7 71 640 71C622.3 71 604.7 71 586.8 71C569 71 551 71 533.2 71C515.3 71 497.7 71 480 71C462.3 71 444.7 71 426.8 71C409 71 391 71 373.2 71C355.3 71 337.7 71 320 71C302.3 71 284.7 71 266.8 71C249 71 231 71 213.2 71C195.3 71 177.7 71 160 71C142.3 71 124.7 71 106.8 71C89 71 71 71 53.2 71C35.3 71 17.7 71 8.8 71L0 71Z" fill="#d77651"></path><path d="M0 51L8.8 51.2C17.7 51.3 35.3 51.7 53.2 50.7C71 49.7 89 47.3 106.8 46.8C124.7 46.3 142.3 47.7 160 49C177.7 50.3 195.3 51.7 213.2 51.7C231 51.7 249 50.3 266.8 49.2C284.7 48 302.3 47 320 48.3C337.7 49.7 355.3 53.3 373.2 52.8C391 52.3 409 47.7 426.8 48C444.7 48.3 462.3 53.7 480 56.2C497.7 58.7 515.3 58.3 533.2 58.2C551 58 569 58 586.8 55.3C604.7 52.7 622.3 47.3 640 46.5C657.7 45.7 675.3 49.3 693.2 50.3C711 51.3 729 49.7 746.8 50.3C764.7 51 782.3 54 800 54.2C817.7 54.3 835.3 51.7 853.2 49.3C871 47 889 45 906.8 45.2C924.7 45.3 942.3 47.7 951.2 48.8L960 50L960 71L951.2 71C942.3 71 924.7 71 906.8 71C889 71 871 71 853.2 71C835.3 71 817.7 71 800 71C782.3 71 764.7 71 746.8 71C729 71 711 71 693.2 71C675.3 71 657.7 71 640 71C622.3 71 604.7 71 586.8 71C569 71 551 71 533.2 71C515.3 71 497.7 71 480 71C462.3 71 444.7 71 426.8 71C409 71 391 71 373.2 71C355.3 71 337.7 71 320 71C302.3 71 284.7 71 266.8 71C249 71 231 71 213.2 71C195.3 71 177.7 71 160 71C142.3 71 124.7 71 106.8 71C89 71 71 71 53.2 71C35.3 71 17.7 71 8.8 71L0 71Z" fill="#d0694e"></path><path d="M0 49L8.8 50.2C17.7 51.3 35.3 53.7 53.2 55.5C71 57.3 89 58.7 106.8 58.5C124.7 58.3 142.3 56.7 160 56C177.7 55.3 195.3 55.7 213.2 54.8C231 54 249 52 266.8 51.7C284.7 51.3 302.3 52.7 320 52.2C337.7 51.7 355.3 49.3 373.2 49.5C391 49.7 409 52.3 426.8 53.7C444.7 55 462.3 55 480 54.2C497.7 53.3 515.3 51.7 533.2 52C551 52.3 569 54.7 586.8 55.8C604.7 57 622.3 57 640 56.2C657.7 55.3 675.3 53.7 693.2 54.3C711 55 729 58 746.8 58.5C764.7 59 782.3 57 800 56.3C817.7 55.7 835.3 56.3 853.2 57.3C871 58.3 889 59.7 906.8 59.8C924.7 60 942.3 59 951.2 58.5L960 58L960 71L951.2 71C942.3 71 924.7 71 906.8 71C889 71 871 71 853.2 71C835.3 71 817.7 71 800 71C782.3 71 764.7 71 746.8 71C729 71 711 71 693.2 71C675.3 71 657.7 71 640 71C622.3 71 604.7 71 586.8 71C569 71 551 71 533.2 71C515.3 71 497.7 71 480 71C462.3 71 444.7 71 426.8 71C409 71 391 71 373.2 71C355.3 71 337.7 71 320 71C302.3 71 284.7 71 266.8 71C249 71 231 71 213.2 71C195.3 71 177.7 71 160 71C142.3 71 124.7 71 106.8 71C89 71 71 71 53.2 71C35.3 71 17.7 71 8.8 71L0 71Z" fill="#c85c4c"></path><path d="M0 56L8.8 55.3C17.7 54.7 35.3 53.3 53.2 53C71 52.7 89 53.3 106.8 54.8C124.7 56.3 142.3 58.7 160 60.3C177.7 62 195.3 63 213.2 62.8C231 62.7 249 61.3 266.8 60.5C284.7 59.7 302.3 59.3 320 60.2C337.7 61 355.3 63 373.2 63.2C391 63.3 409 61.7 426.8 59.7C444.7 57.7 462.3 55.3 480 55.3C497.7 55.3 515.3 57.7 533.2 58.8C551 60 569 60 586.8 58.7C604.7 57.3 622.3 54.7 640 55C657.7 55.3 675.3 58.7 693.2 60.7C711 62.7 729 63.3 746.8 62.7C764.7 62 782.3 60 800 59C817.7 58 835.3 58 853.2 57.3C871 56.7 889 55.3 906.8 55.3C924.7 55.3 942.3 56.7 951.2 57.3L960 58L960 71L951.2 71C942.3 71 924.7 71 906.8 71C889 71 871 71 853.2 71C835.3 71 817.7 71 800 71C782.3 71 764.7 71 746.8 71C729 71 711 71 693.2 71C675.3 71 657.7 71 640 71C622.3 71 604.7 71 586.8 71C569 71 551 71 533.2 71C515.3 71 497.7 71 480 71C462.3 71 444.7 71 426.8 71C409 71 391 71 373.2 71C355.3 71 337.7 71 320 71C302.3 71 284.7 71 266.8 71C249 71 231 71 213.2 71C195.3 71 177.7 71 160 71C142.3 71 124.7 71 106.8 71C89 71 71 71 53.2 71C35.3 71 17.7 71 8.8 71L0 71Z" fill="#c0504a"></path><path d="M0 62L8.8 62.7C17.7 63.3 35.3 64.7 53.2 65.5C71 66.3 89 66.7 106.8 65.5C124.7 64.3 142.3 61.7 160 60.3C177.7 59 195.3 59 213.2 60.2C231 61.3 249 63.7 266.8 64C284.7 64.3 302.3 62.7 320 62.2C337.7 61.7 355.3 62.3 373.2 63.2C391 64 409 65 426.8 65C444.7 65 462.3 64 480 63.3C497.7 62.7 515.3 62.3 533.2 62.7C551 63 569 64 586.8 63.7C604.7 63.3 622.3 61.7 640 61.2C657.7 60.7 675.3 61.3 693.2 61C711 60.7 729 59.3 746.8 59.3C764.7 59.3 782.3 60.7 800 61.3C817.7 62 835.3 62 853.2 61.7C871 61.3 889 60.7 906.8 61.2C924.7 61.7 942.3 63.3 951.2 64.2L960 65L960 71L951.2 71C942.3 71 924.7 71 906.8 71C889 71 871 71 853.2 71C835.3 71 817.7 71 800 71C782.3 71 764.7 71 746.8 71C729 71 711 71 693.2 71C675.3 71 657.7 71 640 71C622.3 71 604.7 71 586.8 71C569 71 551 71 533.2 71C515.3 71 497.7 71 480 71C462.3 71 444.7 71 426.8 71C409 71 391 71 373.2 71C355.3 71 337.7 71 320 71C302.3 71 284.7 71 266.8 71C249 71 231 71 213.2 71C195.3 71 177.7 71 160 71C142.3 71 124.7 71 106.8 71C89 71 71 71 53.2 71C35.3 71 17.7 71 8.8 71L0 71Z" fill="#b84348"></path></svg>