<svg id="visual" viewBox="0 0 960 80" width="960" height="80" xmlns="http://www.w3.org/2000/svg" xmlns:xlink="http://www.w3.org/1999/xlink" version="1.1"><path d="M0 6L8 7.2C16 8.3 32 10.7 48 10.2C64 9.7 80 6.3 96 7C112 7.7 128 12.3 144 15C160 17.7 176 18.3 192 17.7C208 17 224 15 240 12.8C256 10.7 272 8.3 288 9.7C304 11 320 16 336 16.8C352 17.7 368 14.3 384 12.2C400 10 416 9 432 8.7C448 8.3 464 8.7 480 8.5C496 8.3 512 7.7 528 8C544 8.3 560 9.7 576 10.7C592 11.7 608 12.3 624 11.7C640 11 656 9 672 7.8C688 6.7 704 6.3 720 7.3C736 8.3 752 10.7 768 12.2C784 13.7 800 14.3 816 15C832 15.7 848 16.3 864 15.2C880 14 896 11 912 10C928 9 944 10 952 10.5L960 11L960 0L952 0C944 0 928 0 912 0C896 0 880 0 864 0C848 0 832 0 816 0C800 0 784 0 768 0C752 0 736 0 720 0C704 0 688 0 672 0C656 0 640 0 624 0C608 0 592 0 576 0C560 0 544 0 528 0C512 0 496 0 480 0C464 0 448 0 432 0C416 0 400 0 384 0C368 0 352 0 336 0C320 0 304 0 288 0C272 0 256 0 240 0C224 0 208 0 192 0C176 0 160 0 144 0C128 0 112 0 96 0C80 0 64 0 48 0C32 0 16 0 8 0L0 0Z" fill="#4d6540"></path><path d="M0 32L8 30.7C16 29.3 32 26.7 48 26.5C64 26.3 80 28.7 96 31.3C112 34 128 37 144 36.7C160 36.3 176 32.7 192 31.8C208 31 224 33 240 29.7C256 26.3 272 17.7 288 16.5C304 15.3 320 21.7 336 26.2C352 30.7 368 33.3 384 35C400 36.7 416 37.3 432 33.2C448 29 464 20 480 16.8C496 13.7 512 16.3 528 17.8C544 19.3 560 19.7 576 22.3C592 25 608 30 624 29.8C640 29.7 656 24.3 672 23C688 21.7 704 24.3 720 27.2C736 30 752 33 768 33.7C784 34.3 800 32.7 816 31C832 29.3 848 27.7 864 24.7C880 21.7 896 17.3 912 15.8C928 14.3 944 15.7 952 16.3L960 17L960 9L952 8.5C944 8 928 7 912 8C896 9 880 12 864 13.2C848 14.3 832 13.7 816 13C800 12.3 784 11.7 768 10.2C752 8.7 736 6.3 720 5.3C704 4.3 688 4.7 672 5.8C656 7 640 9 624 9.7C608 10.3 592 9.7 576 8.7C560 7.7 544 6.3 528 6C512 5.7 496 6.3 480 6.5C464 6.7 448 6.3 432 6.7C416 7 400 8 384 10.2C368 12.3 352 15.7 336 14.8C320 14 304 9 288 7.7C272 6.3 256 8.7 240 10.8C224 13 208 15 192 15.7C176 16.3 160 15.7 144 13C128 10.3 112 5.7 96 5C80 4.3 64 7.7 48 8.2C32 8.7 16 6.3 8 5.2L0 4Z" fill="#677940"></path><path d="M0 37L8 35.3C16 33.7 32 30.3 48 31C64 31.7 80 36.3 96 40.2C112 44 128 47 144 45.5C160 44 176 38 192 37.7C208 37.3 224 42.7 240 41.3C256 40 272 32 288 29.7C304 27.3 320 30.7 336 33.7C352 36.7 368 39.3 384 40.3C400 41.3 416 40.7 432 38.2C448 35.7 464 31.3 480 28.5C496 25.7 512 24.3 528 23.5C544 22.7 560 22.3 576 26.7C592 31 608 40 624 39.8C640 39.7 656 30.3 672 28.5C688 26.7 704 32.3 720 37.3C736 42.3 752 46.7 768 46.5C784 46.3 800 41.7 816 40.3C832 39 848 41 864 39C880 37 896 31 912 29.5C928 28 944 31 952 32.5L960 34L960 15L952 14.3C944 13.7 928 12.3 912 13.8C896 15.3 880 19.7 864 22.7C848 25.7 832 27.3 816 29C800 30.7 784 32.3 768 31.7C752 31 736 28 720 25.2C704 22.3 688 19.7 672 21C656 22.3 640 27.7 624 27.8C608 28 592 23 576 20.3C560 17.7 544 17.3 528 15.8C512 14.3 496 11.7 480 14.8C464 18 448 27 432 31.2C416 35.3 400 34.7 384 33C368 31.3 352 28.7 336 24.2C320 19.7 304 13.3 288 14.5C272 15.7 256 24.3 240 27.7C224 31 208 29 192 29.8C176 30.7 160 34.3 144 34.7C128 35 112 32 96 29.3C80 26.7 64 24.3 48 24.5C32 24.7 16 27.3 8 28.7L0 30Z" fill="#878b3e"></path><path d="M0 75L8 74.3C16 73.7 32 72.3 48 70.7C64 69 80 67 96 64.3C112 61.7 128 58.3 144 54C160 49.7 176 44.3 192 47.7C208 51 224 63 240 63.2C256 63.3 272 51.7 288 49.5C304 47.3 320 54.7 336 57.8C352 61 368 60 384 58.7C400 57.3 416 55.7 432 58.3C448 61 464 68 480 66.3C496 64.7 512 54.3 528 46.7C544 39 560 34 576 38.7C592 43.3 608 57.7 624 63.3C640 69 656 66 672 66.5C688 67 704 71 720 69.7C736 68.3 752 61.7 768 59.7C784 57.7 800 60.3 816 61C832 61.7 848 60.3 864 62.3C880 64.3 896 69.7 912 68.7C928 67.7 944 60.3 952 56.7L960 53L960 32L952 30.5C944 29 928 26 912 27.5C896 29 880 35 864 37C848 39 832 37 816 38.3C800 39.7 784 44.3 768 44.5C752 44.7 736 40.3 720 35.3C704 30.3 688 24.7 672 26.5C656 28.3 640 37.7 624 37.8C608 38 592 29 576 24.7C560 20.3 544 20.7 528 21.5C512 22.3 496 23.7 480 26.5C464 29.3 448 33.7 432 36.2C416 38.7 400 39.3 384 38.3C368 37.3 352 34.7 336 31.7C320 28.7 304 25.3 288 27.7C272 30 256 38 240 39.3C224 40.7 208 35.3 192 35.7C176 36 160 42 144 43.5C128 45 112 42 96 38.2C80 34.3 64 29.7 48 29C32 28.3 16 31.7 8 33.3L0 35Z" fill="#ae9b3d"></path><path d="M0 81L8 81C16 81 32 81 48 81C64 81 80 81 96 81C112 81 128 81 144 81C160 81 176 81 192 81C208 81 224 81 240 81C256 81 272 81 288 81C304 81 320 81 336 81C352 81 368 81 384 81C400 81 416 81 432 81C448 81 464 81 480 81C496 81 512 81 528 81C544 81 560 81 576 81C592 81 608 81 624 81C640 81 656 81 672 81C688 81 704 81 720 81C736 81 752 81 768 81C784 81 800 81 816 81C832 81 848 81 864 81C880 81 896 81 912 81C928 81 944 81 952 81L960 81L960 51L952 54.7C944 58.3 928 65.7 912 66.7C896 67.7 880 62.3 864 60.3C848 58.3 832 59.7 816 59C800 58.3 784 55.7 768 57.7C752 59.7 736 66.3 720 67.7C704 69 688 65 672 64.5C656 64 640 67 624 61.3C608 55.7 592 41.3 576 36.7C560 32 544 37 528 44.7C512 52.3 496 62.7 480 64.3C464 66 448 59 432 56.3C416 53.7 400 55.3 384 56.7C368 58 352 59 336 55.8C320 52.7 304 45.3 288 47.5C272 49.7 256 61.3 240 61.2C224 61 208 49 192 45.7C176 42.3 160 47.7 144 52C128 56.3 112 59.7 96 62.3C80 65 64 67 48 68.7C32 70.3 16 71.7 8 72.3L0 73Z" fill="#daa940"></path></svg>