<svg id="visual" viewBox="0 0 700 60" width="700" height="60" xmlns="http://www.w3.org/2000/svg" xmlns:xlink="http://www.w3.org/1999/xlink" version="1.1"><rect x="0" y="0" width="700" height="60" fill="#957f70"></rect><path d="M0 15L6.5 13.3C13 11.7 26 8.3 39 10.8C52 13.3 65 21.7 78 24.5C91 27.3 104 24.7 117 22.8C130 21 143 20 155.8 17.7C168.7 15.3 181.3 11.7 194.2 10.7C207 9.7 220 11.3 233 13.8C246 16.3 259 19.7 272 18.8C285 18 298 13 311 11.2C324 9.3 337 10.7 350 14.2C363 17.7 376 23.3 389 25.5C402 27.7 415 26.3 428 25C441 23.7 454 22.3 467 19.5C480 16.7 493 12.3 505.8 14C518.7 15.7 531.3 23.3 544.2 26.3C557 29.3 570 27.7 583 24.7C596 21.7 609 17.3 622 15.8C635 14.3 648 15.7 661 16.5C674 17.3 687 17.7 693.5 17.8L700 18L700 61L693.5 61C687 61 674 61 661 61C648 61 635 61 622 61C609 61 596 61 583 61C570 61 557 61 544.2 61C531.3 61 518.7 61 505.8 61C493 61 480 61 467 61C454 61 441 61 428 61C415 61 402 61 389 61C376 61 363 61 350 61C337 61 324 61 311 61C298 61 285 61 272 61C259 61 246 61 233 61C220 61 207 61 194.2 61C181.3 61 168.7 61 155.8 61C143 61 130 61 117 61C104 61 91 61 78 61C65 61 52 61 39 61C26 61 13 61 6.5 61L0 61Z" fill="#fcb555"></path><path d="M0 22L6.5 22.2C13 22.3 26 22.7 39 22C52 21.3 65 19.7 78 22C91 24.3 104 30.7 117 32.7C130 34.7 143 32.3 155.8 31.7C168.7 31 181.3 32 194.2 28.3C207 24.7 220 16.3 233 16.7C246 17 259 26 272 28.2C285 30.3 298 25.7 311 23.8C324 22 337 23 350 21.7C363 20.3 376 16.7 389 14.8C402 13 415 13 428 12.5C441 12 454 11 467 11.5C480 12 493 14 505.8 18.2C518.7 22.3 531.3 28.7 544.2 31.7C557 34.7 570 34.3 583 32.5C596 30.7 609 27.3 622 24.3C635 21.3 648 18.7 661 16.8C674 15 687 14 693.5 13.5L700 13L700 61L693.5 61C687 61 674 61 661 61C648 61 635 61 622 61C609 61 596 61 583 61C570 61 557 61 544.2 61C531.3 61 518.7 61 505.8 61C493 61 480 61 467 61C454 61 441 61 428 61C415 61 402 61 389 61C376 61 363 61 350 61C337 61 324 61 311 61C298 61 285 61 272 61C259 61 246 61 233 61C220 61 207 61 194.2 61C181.3 61 168.7 61 155.8 61C143 61 130 61 117 61C104 61 91 61 78 61C65 61 52 61 39 61C26 61 13 61 6.5 61L0 61Z" fill="#e8b150"></path><path d="M0 29L6.5 29C13 29 26 29 39 28C52 27 65 25 78 22.7C91 20.3 104 17.7 117 20.5C130 23.3 143 31.7 155.8 33.7C168.7 35.7 181.3 31.3 194.2 28.3C207 25.3 220 23.7 233 22C246 20.3 259 18.7 272 20.5C285 22.3 298 27.7 311 27.2C324 26.7 337 20.3 350 20C363 19.7 376 25.3 389 29.7C402 34 415 37 428 36C441 35 454 30 467 25.5C480 21 493 17 505.8 16.3C518.7 15.7 531.3 18.3 544.2 19.2C557 20 570 19 583 21.8C596 24.7 609 31.3 622 31.7C635 32 648 26 661 24.3C674 22.7 687 25.3 693.5 26.7L700 28L700 61L693.5 61C687 61 674 61 661 61C648 61 635 61 622 61C609 61 596 61 583 61C570 61 557 61 544.2 61C531.3 61 518.7 61 505.8 61C493 61 480 61 467 61C454 61 441 61 428 61C415 61 402 61 389 61C376 61 363 61 350 61C337 61 324 61 311 61C298 61 285 61 272 61C259 61 246 61 233 61C220 61 207 61 194.2 61C181.3 61 168.7 61 155.8 61C143 61 130 61 117 61C104 61 91 61 78 61C65 61 52 61 39 61C26 61 13 61 6.5 61L0 61Z" fill="#d5ac4d"></path><path d="M0 22L6.5 22.8C13 23.7 26 25.3 39 26.2C52 27 65 27 78 27.2C91 27.3 104 27.7 117 28.7C130 29.7 143 31.3 155.8 33.2C168.7 35 181.3 37 194.2 38C207 39 220 39 233 36.2C246 33.3 259 27.7 272 27.3C285 27 298 32 311 35.5C324 39 337 41 350 38.7C363 36.3 376 29.7 389 29.3C402 29 415 35 428 37.2C441 39.3 454 37.7 467 37.3C480 37 493 38 505.8 35.3C518.7 32.7 531.3 26.3 544.2 26C557 25.7 570 31.3 583 31.7C596 32 609 27 622 27.2C635 27.3 648 32.7 661 35.2C674 37.7 687 37.3 693.5 37.2L700 37L700 61L693.5 61C687 61 674 61 661 61C648 61 635 61 622 61C609 61 596 61 583 61C570 61 557 61 544.2 61C531.3 61 518.7 61 505.8 61C493 61 480 61 467 61C454 61 441 61 428 61C415 61 402 61 389 61C376 61 363 61 350 61C337 61 324 61 311 61C298 61 285 61 272 61C259 61 246 61 233 61C220 61 207 61 194.2 61C181.3 61 168.7 61 155.8 61C143 61 130 61 117 61C104 61 91 61 78 61C65 61 52 61 39 61C26 61 13 61 6.5 61L0 61Z" fill="#c3a74b"></path><path d="M0 30L6.5 31.5C13 33 26 36 39 36.7C52 37.3 65 35.7 78 36.3C91 37 104 40 117 38.3C130 36.7 143 30.3 155.8 29.3C168.7 28.3 181.3 32.7 194.2 34.3C207 36 220 35 233 35C246 35 259 36 272 35.3C285 34.7 298 32.3 311 32.8C324 33.3 337 36.7 350 39C363 41.3 376 42.7 389 40C402 37.3 415 30.7 428 29.7C441 28.7 454 33.3 467 35.7C480 38 493 38 505.8 36C518.7 34 531.3 30 544.2 28.8C557 27.7 570 29.3 583 29.8C596 30.3 609 29.7 622 31.8C635 34 648 39 661 39.2C674 39.3 687 34.7 693.5 32.3L700 30L700 61L693.5 61C687 61 674 61 661 61C648 61 635 61 622 61C609 61 596 61 583 61C570 61 557 61 544.2 61C531.3 61 518.7 61 505.8 61C493 61 480 61 467 61C454 61 441 61 428 61C415 61 402 61 389 61C376 61 363 61 350 61C337 61 324 61 311 61C298 61 285 61 272 61C259 61 246 61 233 61C220 61 207 61 194.2 61C181.3 61 168.7 61 155.8 61C143 61 130 61 117 61C104 61 91 61 78 61C65 61 52 61 39 61C26 61 13 61 6.5 61L0 61Z" fill="#b1a24a"></path><path d="M0 29L6.5 32.2C13 35.3 26 41.7 39 42.2C52 42.7 65 37.3 78 37.3C91 37.3 104 42.7 117 44.3C130 46 143 44 155.8 42.2C168.7 40.3 181.3 38.7 194.2 39.2C207 39.7 220 42.3 233 43C246 43.7 259 42.3 272 42.2C285 42 298 43 311 43.2C324 43.3 337 42.7 350 41C363 39.3 376 36.7 389 35.7C402 34.7 415 35.3 428 36C441 36.7 454 37.3 467 39.3C480 41.3 493 44.7 505.8 46C518.7 47.3 531.3 46.7 544.2 45.3C557 44 570 42 583 41.5C596 41 609 42 622 41.8C635 41.7 648 40.3 661 40.2C674 40 687 41 693.5 41.5L700 42L700 61L693.5 61C687 61 674 61 661 61C648 61 635 61 622 61C609 61 596 61 583 61C570 61 557 61 544.2 61C531.3 61 518.7 61 505.8 61C493 61 480 61 467 61C454 61 441 61 428 61C415 61 402 61 389 61C376 61 363 61 350 61C337 61 324 61 311 61C298 61 285 61 272 61C259 61 246 61 233 61C220 61 207 61 194.2 61C181.3 61 168.7 61 155.8 61C143 61 130 61 117 61C104 61 91 61 78 61C65 61 52 61 39 61C26 61 13 61 6.5 61L0 61Z" fill="#a19c4a"></path><path d="M0 43L6.5 43.2C13 43.3 26 43.7 39 43C52 42.3 65 40.7 78 40.3C91 40 104 41 117 42C130 43 143 44 155.8 44C168.7 44 181.3 43 194.2 42C207 41 220 40 233 41.2C246 42.3 259 45.7 272 45.3C285 45 298 41 311 41.2C324 41.3 337 45.7 350 47.7C363 49.7 376 49.3 389 49.3C402 49.3 415 49.7 428 47.5C441 45.3 454 40.7 467 40C480 39.3 493 42.7 505.8 43.5C518.7 44.3 531.3 42.7 544.2 43C557 43.3 570 45.7 583 45.8C596 46 609 44 622 42.2C635 40.3 648 38.7 661 38.8C674 39 687 41 693.5 42L700 43L700 61L693.5 61C687 61 674 61 661 61C648 61 635 61 622 61C609 61 596 61 583 61C570 61 557 61 544.2 61C531.3 61 518.7 61 505.8 61C493 61 480 61 467 61C454 61 441 61 428 61C415 61 402 61 389 61C376 61 363 61 350 61C337 61 324 61 311 61C298 61 285 61 272 61C259 61 246 61 233 61C220 61 207 61 194.2 61C181.3 61 168.7 61 155.8 61C143 61 130 61 117 61C104 61 91 61 78 61C65 61 52 61 39 61C26 61 13 61 6.5 61L0 61Z" fill="#92954b"></path><path d="M0 41L6.5 42C13 43 26 45 39 46.7C52 48.3 65 49.7 78 49.7C91 49.7 104 48.3 117 47.8C130 47.3 143 47.7 155.8 47C168.7 46.3 181.3 44.7 194.2 44.3C207 44 220 45 233 44.5C246 44 259 42 272 42.2C285 42.3 298 44.7 311 45.8C324 47 337 47 350 46.2C363 45.3 376 43.7 389 44C402 44.3 415 46.7 428 47.7C441 48.7 454 48.3 467 47.7C480 47 493 46 505.8 46.7C518.7 47.3 531.3 49.7 544.2 50C557 50.3 570 48.7 583 48.2C596 47.7 609 48.3 622 49.2C635 50 648 51 661 51C674 51 687 50 693.5 49.5L700 49L700 61L693.5 61C687 61 674 61 661 61C648 61 635 61 622 61C609 61 596 61 583 61C570 61 557 61 544.2 61C531.3 61 518.7 61 505.8 61C493 61 480 61 467 61C454 61 441 61 428 61C415 61 402 61 389 61C376 61 363 61 350 61C337 61 324 61 311 61C298 61 285 61 272 61C259 61 246 61 233 61C220 61 207 61 194.2 61C181.3 61 168.7 61 155.8 61C143 61 130 61 117 61C104 61 91 61 78 61C65 61 52 61 39 61C26 61 13 61 6.5 61L0 61Z" fill="#838f4c"></path><path d="M0 48L6.5 47.3C13 46.7 26 45.3 39 45.2C52 45 65 46 78 47.3C91 48.7 104 50.3 117 51.7C130 53 143 54 155.8 54C168.7 54 181.3 53 194.2 52.2C207 51.3 220 50.7 233 51.2C246 51.7 259 53.3 272 53.5C285 53.7 298 52.3 311 50.8C324 49.3 337 47.7 350 47.8C363 48 376 50 389 50.8C402 51.7 415 51.3 428 50C441 48.7 454 46.3 467 46.7C480 47 493 50 505.8 51.8C518.7 53.7 531.3 54.3 544.2 53.8C557 53.3 570 51.7 583 50.7C596 49.7 609 49.3 622 48.7C635 48 648 47 661 47C674 47 687 48 693.5 48.5L700 49L700 61L693.5 61C687 61 674 61 661 61C648 61 635 61 622 61C609 61 596 61 583 61C570 61 557 61 544.2 61C531.3 61 518.7 61 505.8 61C493 61 480 61 467 61C454 61 441 61 428 61C415 61 402 61 389 61C376 61 363 61 350 61C337 61 324 61 311 61C298 61 285 61 272 61C259 61 246 61 233 61C220 61 207 61 194.2 61C181.3 61 168.7 61 155.8 61C143 61 130 61 117 61C104 61 91 61 78 61C65 61 52 61 39 61C26 61 13 61 6.5 61L0 61Z" fill="#76874c"></path><path d="M0 53L6.5 53.7C13 54.3 26 55.7 39 56.3C52 57 65 57 78 56C91 55 104 53 117 51.8C130 50.7 143 50.3 155.8 51.3C168.7 52.3 181.3 54.7 194.2 55.2C207 55.7 220 54.3 233 53.8C246 53.3 259 53.7 272 54.2C285 54.7 298 55.3 311 55.3C324 55.3 337 54.7 350 54.2C363 53.7 376 53.3 389 53.5C402 53.7 415 54.3 428 54.2C441 54 454 53 467 52.7C480 52.3 493 52.7 505.8 52.3C518.7 52 531.3 51 544.2 51C557 51 570 52 583 52.5C596 53 609 53 622 52.7C635 52.3 648 51.7 661 52C674 52.3 687 53.7 693.5 54.3L700 55L700 61L693.5 61C687 61 674 61 661 61C648 61 635 61 622 61C609 61 596 61 583 61C570 61 557 61 544.2 61C531.3 61 518.7 61 505.8 61C493 61 480 61 467 61C454 61 441 61 428 61C415 61 402 61 389 61C376 61 363 61 350 61C337 61 324 61 311 61C298 61 285 61 272 61C259 61 246 61 233 61C220 61 207 61 194.2 61C181.3 61 168.7 61 155.8 61C143 61 130 61 117 61C104 61 91 61 78 61C65 61 52 61 39 61C26 61 13 61 6.5 61L0 61Z" fill="#6a804d"></path></svg>