<svg id="visual" viewBox="0 0 700 60" width="700" height="60" xmlns="http://www.w3.org/2000/svg" xmlns:xlink="http://www.w3.org/1999/xlink" version="1.1"><path d="M0 32L7.3 28.7C14.7 25.3 29.3 18.7 44 17.5C58.7 16.3 73.3 20.7 87.8 19.2C102.3 17.7 116.7 10.3 131.2 7C145.7 3.7 160.3 4.3 175 7C189.7 9.7 204.3 14.3 219 17.5C233.7 20.7 248.3 22.3 262.8 25.7C277.3 29 291.7 34 306.2 33.3C320.7 32.7 335.3 26.3 350 23.8C364.7 21.3 379.3 22.7 394 23.8C408.7 25 423.3 26 437.8 27.8C452.3 29.7 466.7 32.3 481.2 30.2C495.7 28 510.3 21 525 16.3C539.7 11.7 554.3 9.3 569 11.8C583.7 14.3 598.3 21.7 612.8 24.3C627.3 27 641.7 25 656.2 25.5C670.7 26 685.3 29 692.7 30.5L700 32L700 0L692.7 0C685.3 0 670.7 0 656.2 0C641.7 0 627.3 0 612.8 0C598.3 0 583.7 0 569 0C554.3 0 539.7 0 525 0C510.3 0 495.7 0 481.2 0C466.7 0 452.3 0 437.8 0C423.3 0 408.7 0 394 0C379.3 0 364.7 0 350 0C335.3 0 320.7 0 306.2 0C291.7 0 277.3 0 262.8 0C248.3 0 233.7 0 219 0C204.3 0 189.7 0 175 0C160.3 0 145.7 0 131.2 0C116.7 0 102.3 0 87.8 0C73.3 0 58.7 0 44 0C29.3 0 14.7 0 7.3 0L0 0Z" fill="#30aa99"></path><path d="M0 51L7.3 47.7C14.7 44.3 29.3 37.7 44 34.7C58.7 31.7 73.3 32.3 87.8 29.2C102.3 26 116.7 19 131.2 14.5C145.7 10 160.3 8 175 11.8C189.7 15.7 204.3 25.3 219 29.3C233.7 33.3 248.3 31.7 262.8 34.5C277.3 37.3 291.7 44.7 306.2 45.2C320.7 45.7 335.3 39.3 350 37C364.7 34.7 379.3 36.3 394 37.3C408.7 38.3 423.3 38.7 437.8 40.7C452.3 42.7 466.7 46.3 481.2 43.3C495.7 40.3 510.3 30.7 525 25.5C539.7 20.3 554.3 19.7 569 23C583.7 26.3 598.3 33.7 612.8 37.3C627.3 41 641.7 41 656.2 42.7C670.7 44.3 685.3 47.7 692.7 49.3L700 51L700 30L692.7 28.5C685.3 27 670.7 24 656.2 23.5C641.7 23 627.3 25 612.8 22.3C598.3 19.7 583.7 12.3 569 9.8C554.3 7.3 539.7 9.7 525 14.3C510.3 19 495.7 26 481.2 28.2C466.7 30.3 452.3 27.7 437.8 25.8C423.3 24 408.7 23 394 21.8C379.3 20.7 364.7 19.3 350 21.8C335.3 24.3 320.7 30.7 306.2 31.3C291.7 32 277.3 27 262.8 23.7C248.3 20.3 233.7 18.7 219 15.5C204.3 12.3 189.7 7.7 175 5C160.3 2.3 145.7 1.7 131.2 5C116.7 8.3 102.3 15.7 87.8 17.2C73.3 18.7 58.7 14.3 44 15.5C29.3 16.7 14.7 23.3 7.3 26.7L0 30Z" fill="#16907f"></path><path d="M0 56L7.3 55.8C14.7 55.7 29.3 55.3 44 54.5C58.7 53.7 73.3 52.3 87.8 51.8C102.3 51.3 116.7 51.7 131.2 52C145.7 52.3 160.3 52.7 175 53.5C189.7 54.3 204.3 55.7 219 55.2C233.7 54.7 248.3 52.3 262.8 52.2C277.3 52 291.7 54 306.2 54.7C320.7 55.3 335.3 54.7 350 53.3C364.7 52 379.3 50 394 48.3C408.7 46.7 423.3 45.3 437.8 47C452.3 48.7 466.7 53.3 481.2 55.3C495.7 57.3 510.3 56.7 525 56C539.7 55.3 554.3 54.7 569 54.3C583.7 54 598.3 54 612.8 52.5C627.3 51 641.7 48 656.2 48.5C670.7 49 685.3 53 692.7 55L700 57L700 49L692.7 47.3C685.3 45.7 670.7 42.3 656.2 40.7C641.7 39 627.3 39 612.8 35.3C598.3 31.7 583.7 24.3 569 21C554.3 17.7 539.7 18.3 525 23.5C510.3 28.7 495.7 38.3 481.2 41.3C466.7 44.3 452.3 40.7 437.8 38.7C423.3 36.7 408.7 36.3 394 35.3C379.3 34.3 364.7 32.7 350 35C335.3 37.3 320.7 43.7 306.2 43.2C291.7 42.7 277.3 35.3 262.8 32.5C248.3 29.7 233.7 31.3 219 27.3C204.3 23.3 189.7 13.7 175 9.8C160.3 6 145.7 8 131.2 12.5C116.7 17 102.3 24 87.8 27.2C73.3 30.3 58.7 29.7 44 32.7C29.3 35.7 14.7 42.3 7.3 45.7L0 49Z" fill="#027769"></path><path d="M0 61L7.3 61C14.7 61 29.3 61 44 61C58.7 61 73.3 61 87.8 61C102.3 61 116.7 61 131.2 61C145.7 61 160.3 61 175 61C189.7 61 204.3 61 219 61C233.7 61 248.3 61 262.8 61C277.3 61 291.7 61 306.2 61C320.7 61 335.3 61 350 61C364.7 61 379.3 61 394 61C408.7 61 423.3 61 437.8 61C452.3 61 466.7 61 481.2 61C495.7 61 510.3 61 525 61C539.7 61 554.3 61 569 61C583.7 61 598.3 61 612.8 61C627.3 61 641.7 61 656.2 61C670.7 61 685.3 61 692.7 61L700 61L700 55L692.7 53C685.3 51 670.7 47 656.2 46.5C641.7 46 627.3 49 612.8 50.5C598.3 52 583.7 52 569 52.3C554.3 52.7 539.7 53.3 525 54C510.3 54.7 495.7 55.3 481.2 53.3C466.7 51.3 452.3 46.7 437.8 45C423.3 43.3 408.7 44.7 394 46.3C379.3 48 364.7 50 350 51.3C335.3 52.7 320.7 53.3 306.2 52.7C291.7 52 277.3 50 262.8 50.2C248.3 50.3 233.7 52.7 219 53.2C204.3 53.7 189.7 52.3 175 51.5C160.3 50.7 145.7 50.3 131.2 50C116.7 49.7 102.3 49.3 87.8 49.8C73.3 50.3 58.7 51.7 44 52.5C29.3 53.3 14.7 53.7 7.3 53.8L0 54Z" fill="#016055"></path></svg>