<svg id="visual" viewBox="0 0 700 60" width="700" height="60" xmlns="http://www.w3.org/2000/svg" xmlns:xlink="http://www.w3.org/1999/xlink" version="1.1"><path d="M0 5L64 11L127 6L191 11L255 9L318 5L382 13L445 11L509 11L573 5L636 12L700 6L700 0L636 0L573 0L509 0L445 0L382 0L318 0L255 0L191 0L127 0L64 0L0 0Z" fill="#00cc8e"></path><path d="M0 13L64 21L127 15L191 17L255 15L318 15L382 17L445 16L509 15L573 13L636 18L700 12L700 4L636 10L573 3L509 9L445 9L382 11L318 3L255 7L191 9L127 4L64 9L0 3Z" fill="#00b98a"></path><path d="M0 23L64 38L127 38L191 40L255 26L318 23L382 37L445 42L509 24L573 23L636 38L700 39L700 10L636 16L573 11L509 13L445 14L382 15L318 13L255 13L191 15L127 13L64 19L0 11Z" fill="#00a784"></path><path d="M0 44L64 47L127 53L191 50L255 48L318 46L382 56L445 56L509 53L573 48L636 50L700 54L700 37L636 36L573 21L509 22L445 40L382 35L318 21L255 24L191 38L127 36L64 36L0 21Z" fill="#00957c"></path><path d="M0 61L64 61L127 61L191 61L255 61L318 61L382 61L445 61L509 61L573 61L636 61L700 61L700 52L636 48L573 46L509 51L445 54L382 54L318 44L255 46L191 48L127 51L64 45L0 42Z" fill="#038373"></path></svg>