<svg id="visual" viewBox="0 0 700 60" width="700" height="60" xmlns="http://www.w3.org/2000/svg" xmlns:xlink="http://www.w3.org/1999/xlink" version="1.1"><path d="M0 6L64 6L64 10L127 10L127 12L191 12L191 10L255 10L255 12L318 12L318 17L382 17L382 14L445 14L445 8L509 8L509 14L573 14L573 8L636 8L636 12L700 12L700 9L700 0L700 0L636 0L636 0L573 0L573 0L509 0L509 0L445 0L445 0L382 0L382 0L318 0L318 0L255 0L255 0L191 0L191 0L127 0L127 0L64 0L64 0L0 0Z" fill="#fa7268"></path><path d="M0 35L64 35L64 37L127 37L127 38L191 38L191 26L255 26L255 26L318 26L318 35L382 35L382 26L445 26L445 25L509 25L509 23L573 23L573 22L636 22L636 29L700 29L700 21L700 7L700 10L636 10L636 6L573 6L573 12L509 12L509 6L445 6L445 12L382 12L382 15L318 15L318 10L255 10L255 8L191 8L191 10L127 10L127 8L64 8L64 4L0 4Z" fill="#ea5e66"></path><path d="M0 46L64 46L64 50L127 50L127 47L191 47L191 42L255 42L255 39L318 39L318 46L382 46L382 45L445 45L445 41L509 41L509 47L573 47L573 45L636 45L636 46L700 46L700 46L700 19L700 27L636 27L636 20L573 20L573 21L509 21L509 23L445 23L445 24L382 24L382 33L318 33L318 24L255 24L255 24L191 24L191 36L127 36L127 35L64 35L64 33L0 33Z" fill="#d84a64"></path><path d="M0 53L64 53L64 56L127 56L127 53L191 53L191 48L255 48L255 49L318 49L318 51L382 51L382 54L445 54L445 48L509 48L509 54L573 54L573 50L636 50L636 51L700 51L700 51L700 44L700 44L636 44L636 43L573 43L573 45L509 45L509 39L445 39L445 43L382 43L382 44L318 44L318 37L255 37L255 40L191 40L191 45L127 45L127 48L64 48L64 44L0 44Z" fill="#c53762"></path><path d="M0 61L64 61L64 61L127 61L127 61L191 61L191 61L255 61L255 61L318 61L318 61L382 61L382 61L445 61L445 61L509 61L509 61L573 61L573 61L636 61L636 61L700 61L700 61L700 49L700 49L636 49L636 48L573 48L573 52L509 52L509 46L445 46L445 52L382 52L382 49L318 49L318 47L255 47L255 46L191 46L191 51L127 51L127 54L64 54L64 51L0 51Z" fill="#b0235f"></path></svg>