<svg id="visual" viewBox="0 0 960 70" width="960" height="70" xmlns="http://www.w3.org/2000/svg" xmlns:xlink="http://www.w3.org/1999/xlink" version="1.1"><rect x="0" y="0" width="960" height="70" fill="#931C1C"></rect><path d="M0 26L60 35L120 26L180 25L240 34L300 25L360 15L420 24L480 37L540 34L600 20L660 37L720 32L780 19L840 33L900 23L960 38L960 71L900 71L840 71L780 71L720 71L660 71L600 71L540 71L480 71L420 71L360 71L300 71L240 71L180 71L120 71L60 71L0 71Z" fill="#871400"></path><path d="M0 29L60 26L120 28L180 40L240 25L300 37L360 27L420 37L480 33L540 29L600 33L660 34L720 46L780 25L840 36L900 36L960 27L960 71L900 71L840 71L780 71L720 71L660 71L600 71L540 71L480 71L420 71L360 71L300 71L240 71L180 71L120 71L60 71L0 71Z" fill="#a32d04"></path><path d="M0 48L60 45L120 51L180 36L240 39L300 38L360 38L420 44L480 38L540 47L600 39L660 43L720 50L780 36L840 50L900 39L960 36L960 71L900 71L840 71L780 71L720 71L660 71L600 71L540 71L480 71L420 71L360 71L300 71L240 71L180 71L120 71L60 71L0 71Z" fill="#be4407"></path><path d="M0 51L60 53L120 53L180 53L240 55L300 45L360 53L420 53L480 44L540 45L600 55L660 58L720 45L780 56L840 54L900 51L960 43L960 71L900 71L840 71L780 71L720 71L660 71L600 71L540 71L480 71L420 71L360 71L300 71L240 71L180 71L120 71L60 71L0 71Z" fill="#da5b09"></path><path d="M0 63L60 58L120 59L180 52L240 55L300 54L360 55L420 53L480 62L540 63L600 53L660 56L720 58L780 59L840 63L900 56L960 62L960 71L900 71L840 71L780 71L720 71L660 71L600 71L540 71L480 71L420 71L360 71L300 71L240 71L180 71L120 71L60 71L0 71Z" fill="#f5730a"></path></svg>