<svg id="visual" viewBox="0 0 700 60" width="700" height="60" xmlns="http://www.w3.org/2000/svg" xmlns:xlink="http://www.w3.org/1999/xlink" version="1.1"><path d="M0 5L47 5L47 6L93 6L93 9L140 9L140 9L187 9L187 11L233 11L233 8L280 8L280 6L327 6L327 4L373 4L373 11L420 11L420 12L467 12L467 8L513 8L513 7L560 7L560 6L607 6L607 7L653 7L653 6L700 6L700 6L700 0L700 0L653 0L653 0L607 0L607 0L560 0L560 0L513 0L513 0L467 0L467 0L420 0L420 0L373 0L373 0L327 0L327 0L280 0L280 0L233 0L233 0L187 0L187 0L140 0L140 0L93 0L93 0L47 0L47 0L0 0Z" fill="#eb6d45"></path><path d="M0 23L47 23L47 22L93 22L93 25L140 25L140 25L187 25L187 28L233 28L233 38L280 38L280 20L327 20L327 11L373 11L373 24L420 24L420 35L467 35L467 31L513 31L513 20L560 20L560 23L607 23L607 25L653 25L653 29L700 29L700 17L700 4L700 4L653 4L653 5L607 5L607 4L560 4L560 5L513 5L513 6L467 6L467 10L420 10L420 9L373 9L373 2L327 2L327 4L280 4L280 6L233 6L233 9L187 9L187 7L140 7L140 7L93 7L93 4L47 4L47 3L0 3Z" fill="#c77a31"></path><path d="M0 41L47 41L47 27L93 27L93 30L140 30L140 40L187 40L187 32L233 32L233 44L280 44L280 23L327 23L327 24L373 24L373 35L420 35L420 51L467 51L467 39L513 39L513 30L560 30L560 30L607 30L607 37L653 37L653 41L700 41L700 27L700 15L700 27L653 27L653 23L607 23L607 21L560 21L560 18L513 18L513 29L467 29L467 33L420 33L420 22L373 22L373 9L327 9L327 18L280 18L280 36L233 36L233 26L187 26L187 23L140 23L140 23L93 23L93 20L47 20L47 21L0 21Z" fill="#a38130"></path><path d="M0 46L47 46L47 38L93 38L93 38L140 38L140 47L187 47L187 39L233 39L233 53L280 53L280 37L327 37L327 36L373 36L373 48L420 48L420 54L467 54L467 52L513 52L513 41L560 41L560 43L607 43L607 48L653 48L653 48L700 48L700 33L700 25L700 39L653 39L653 35L607 35L607 28L560 28L560 28L513 28L513 37L467 37L467 49L420 49L420 33L373 33L373 22L327 22L327 21L280 21L280 42L233 42L233 30L187 30L187 38L140 38L140 28L93 28L93 25L47 25L47 39L0 39Z" fill="#83833c"></path><path d="M0 61L47 61L47 61L93 61L93 61L140 61L140 61L187 61L187 61L233 61L233 61L280 61L280 61L327 61L327 61L373 61L373 61L420 61L420 61L467 61L467 61L513 61L513 61L560 61L560 61L607 61L607 61L653 61L653 61L700 61L700 61L700 31L700 46L653 46L653 46L607 46L607 41L560 41L560 39L513 39L513 50L467 50L467 52L420 52L420 46L373 46L373 34L327 34L327 35L280 35L280 51L233 51L233 37L187 37L187 45L140 45L140 36L93 36L93 36L47 36L47 44L0 44Z" fill="#6a804d"></path></svg>