<svg id="visual" viewBox="0 0 700 60" width="700" height="60" xmlns="http://www.w3.org/2000/svg" xmlns:xlink="http://www.w3.org/1999/xlink" version="1.1"><g stroke-width="1" stroke-linejoin="bevel"><path d="M370.3 24L399 0L366.3 0Z" fill="#1e8c6f" stroke="#306f87"></path><path d="M370.3 24L431 25L399 0Z" fill="#62a35a" stroke="#306f87"></path><path d="M322.7 41L364.3 60L370.3 24Z" fill="#1e8c6f" stroke="#306f87"></path><path d="M370.3 24L364.3 60L431 25Z" fill="#ffb845" stroke="#306f87"></path><path d="M366.3 0L316.7 0L370.3 24Z" fill="#c6b63e" stroke="#306f87"></path><path d="M316.7 0L322.7 41L370.3 24Z" fill="#359469" stroke="#306f87"></path><path d="M364.3 60L442 60L431 25Z" fill="#e2b83f" stroke="#306f87"></path><path d="M254 29L315.7 60L322.7 41Z" fill="#038373" stroke="#306f87"></path><path d="M322.7 41L315.7 60L364.3 60Z" fill="#4b9c62" stroke="#306f87"></path><path d="M476.7 60L473.7 4L431 25Z" fill="#038373" stroke="#306f87"></path><path d="M431 25L473.7 4L399 0Z" fill="#62a35a" stroke="#306f87"></path><path d="M515.3 10L477.7 0L473.7 4Z" fill="#ffb845" stroke="#306f87"></path><path d="M473.7 4L477.7 0L399 0Z" fill="#359469" stroke="#306f87"></path><path d="M442 60L476.7 60L431 25Z" fill="#92ae49" stroke="#306f87"></path><path d="M316.7 0L254 29L322.7 41Z" fill="#abb342" stroke="#306f87"></path><path d="M255 0L254 29L316.7 0Z" fill="#4b9c62" stroke="#306f87"></path><path d="M476.7 60L515.3 10L473.7 4Z" fill="#abb342" stroke="#306f87"></path><path d="M515.3 10L518.3 0L477.7 0Z" fill="#359469" stroke="#306f87"></path><path d="M254 29L254 60L315.7 60Z" fill="#ffb845" stroke="#306f87"></path><path d="M255 0L235.3 0L254 29Z" fill="#4b9c62" stroke="#306f87"></path><path d="M254 29L217.3 60L254 60Z" fill="#ffb845" stroke="#306f87"></path><path d="M476.7 60L540.3 60L515.3 10Z" fill="#359469" stroke="#306f87"></path><path d="M515.3 10L548 0L518.3 0Z" fill="#62a35a" stroke="#306f87"></path><path d="M561 43L548 0L515.3 10Z" fill="#abb342" stroke="#306f87"></path><path d="M211.7 36L217.3 60L254 29Z" fill="#abb342" stroke="#306f87"></path><path d="M235.3 0L211.7 36L254 29Z" fill="#4b9c62" stroke="#306f87"></path><path d="M235.3 0L208.3 18L211.7 36Z" fill="#e2b83f" stroke="#306f87"></path><path d="M540.3 60L561 43L515.3 10Z" fill="#92ae49" stroke="#306f87"></path><path d="M540.3 60L561 60L561 43Z" fill="#1e8c6f" stroke="#306f87"></path><path d="M167 24L194.7 60L211.7 36Z" fill="#92ae49" stroke="#306f87"></path><path d="M211.7 36L194.7 60L217.3 60Z" fill="#92ae49" stroke="#306f87"></path><path d="M235.3 0L174.7 0L208.3 18Z" fill="#79a951" stroke="#306f87"></path><path d="M208.3 18L167 24L211.7 36Z" fill="#4b9c62" stroke="#306f87"></path><path d="M561 60L588.7 60L561 43Z" fill="#038373" stroke="#306f87"></path><path d="M561 43L596.7 0L548 0Z" fill="#79a951" stroke="#306f87"></path><path d="M588.7 60L596.7 0L561 43Z" fill="#e2b83f" stroke="#306f87"></path><path d="M174.7 0L167 24L208.3 18Z" fill="#1e8c6f" stroke="#306f87"></path><path d="M588.7 60L614.7 53L596.7 0Z" fill="#ffb845" stroke="#306f87"></path><path d="M137 0L151 60L167 24Z" fill="#92ae49" stroke="#306f87"></path><path d="M167 24L151 60L194.7 60Z" fill="#ffb845" stroke="#306f87"></path><path d="M174.7 0L137 0L167 24Z" fill="#79a951" stroke="#306f87"></path><path d="M588.7 60L637.3 60L614.7 53Z" fill="#4b9c62" stroke="#306f87"></path><path d="M614.7 53L663.3 0L596.7 0Z" fill="#ffb845" stroke="#306f87"></path><path d="M137 0L118.3 0L151 60Z" fill="#92ae49" stroke="#306f87"></path><path d="M637.3 60L663.3 0L614.7 53Z" fill="#e2b83f" stroke="#306f87"></path><path d="M637.3 60L672.3 44L663.3 0Z" fill="#e2b83f" stroke="#306f87"></path><path d="M118.3 0L92.3 60L151 60Z" fill="#79a951" stroke="#306f87"></path><path d="M118.3 0L77.3 24L92.3 60Z" fill="#92ae49" stroke="#306f87"></path><path d="M672.3 44L700 0L663.3 0Z" fill="#359469" stroke="#306f87"></path><path d="M77.3 24L67.7 60L92.3 60Z" fill="#ffb845" stroke="#306f87"></path><path d="M700 60L700 49L672.3 44Z" fill="#038373" stroke="#306f87"></path><path d="M672.3 44L700 49L700 0Z" fill="#359469" stroke="#306f87"></path><path d="M637.3 60L700 60L672.3 44Z" fill="#ffb845" stroke="#306f87"></path><path d="M27.7 0L39.7 21L77.3 24Z" fill="#1e8c6f" stroke="#306f87"></path><path d="M77.3 24L39.7 21L67.7 60Z" fill="#c6b63e" stroke="#306f87"></path><path d="M118.3 0L27.7 0L77.3 24Z" fill="#ffb845" stroke="#306f87"></path><path d="M27.7 0L0 18L39.7 21Z" fill="#359469" stroke="#306f87"></path><path d="M39.7 21L0 60L67.7 60Z" fill="#e2b83f" stroke="#306f87"></path><path d="M27.7 0L0 0L0 18Z" fill="#79a951" stroke="#306f87"></path><path d="M0 18L0 60L39.7 21Z" fill="#1e8c6f" stroke="#306f87"></path></g></svg>